<?xml version="1.0" standalone="no"?>
<!DOCTYPE svg PUBLIC "-//W3C//DTD SVG 20010904//EN"
 "http://www.w3.org/TR/2001/REC-SVG-20010904/DTD/svg10.dtd">
<svg version="1.0" xmlns="http://www.w3.org/2000/svg"
 width="272.000000pt" height="185.000000pt" viewBox="0 0 272.000000 185.000000"
 preserveAspectRatio="xMidYMid meet">

<g transform="translate(0.000000,185.000000) scale(0.100000,-0.100000)"
fill="#000000" stroke="none">
<path d="M1195 1735 c-279 -61 -496 -242 -601 -500 -230 -563 207 -1167 819
-1132 398 23 719 326 768 728 31 252 -57 498 -246 684 -117 116 -248 185 -415
221 -81 17 -246 17 -325 -1z m115 -220 l0 -125 -62 1 c-35 1 -89 4 -121 8
l-58 6 36 60 c45 74 77 109 134 146 71 46 71 45 71 -96z m171 97 c53 -34 106
-93 142 -160 l27 -49 -83 -6 c-45 -4 -99 -7 -119 -7 l-38 0 0 125 c0 141 0
142 71 97z m-443 -59 c-8 -10 -28 -43 -44 -73 -15 -30 -29 -57 -31 -59 -4 -6
-113 10 -113 17 1 11 101 88 150 116 48 27 62 27 38 -1z m733 -30 c40 -27 102
-84 97 -88 -2 -3 -29 -7 -59 -10 l-54 -6 -30 61 c-16 34 -36 66 -42 72 -7 6
-13 14 -13 19 0 10 56 -17 101 -48z m-855 -232 c-3 -14 -12 -57 -20 -96 -9
-38 -18 -107 -22 -152 l-7 -83 -115 0 -115 0 6 64 c7 71 58 218 99 282 l26 40
77 -14 c75 -15 77 -16 71 -41z m1072 -4 c43 -76 82 -192 89 -264 l6 -63 -115
0 -115 0 -7 83 c-4 45 -13 114 -22 152 -8 39 -17 82 -20 96 -6 25 -4 27 68 40
40 8 76 13 80 12 4 -2 20 -27 36 -56z m-726 3 l48 0 0 -165 0 -165 -171 0
-171 0 6 68 c8 77 34 215 47 251 9 24 11 24 101 17 50 -3 113 -6 140 -6z m445
-45 c15 -56 43 -228 43 -262 0 -23 0 -23 -170 -23 l-170 0 0 165 0 164 83 4
c45 2 109 3 141 3 l60 -1 13 -50z m-828 -483 c6 -53 18 -122 26 -152 8 -30 15
-60 15 -66 0 -11 -100 -34 -143 -34 -33 0 -119 194 -133 299 l-7 51 115 0 115
0 12 -98z m431 -51 l0 -148 -136 -7 c-75 -4 -141 -3 -145 1 -11 11 -45 168
-53 246 l-6 57 170 0 170 0 0 -149z m440 142 c-3 -74 -45 -280 -60 -296 -4 -5
-69 -5 -144 -1 l-136 7 0 148 0 149 170 0 c94 0 170 -3 170 -7z m330 -15 c0
-65 -69 -253 -115 -312 -13 -18 -20 -18 -87 -7 -40 7 -74 14 -76 16 -3 2 3 33
11 68 9 35 22 108 28 161 l12 96 114 0 c110 0 113 -1 113 -22z m-770 -503 c0
-141 0 -142 -71 -96 -57 37 -89 72 -134 146 l-36 60 58 6 c32 3 86 6 121 7
l62 2 0 -125z m283 116 l58 -6 -36 -60 c-45 -74 -77 -109 -134 -146 -71 -46
-71 -45 -71 96 l0 125 63 -1 c34 -1 88 -4 120 -8z m-614 -52 c6 -16 24 -50 41
-75 16 -25 30 -47 30 -50 0 -18 -198 119 -200 138 0 7 36 14 87 17 26 1 33 -4
42 -30z m889 16 c10 -9 -95 -91 -161 -126 l-38 -20 31 53 c18 29 37 66 43 82
12 27 14 28 66 22 30 -4 57 -8 59 -11z"/>
</g>
</svg>
